<svg width="15" height="16" viewBox="0 0 15 16" fill="none" xmlns="http://www.w3.org/2000/svg">
<path d="M3.3916 15.8311C2.0791 15.8311 1.32715 15.0791 1.32715 13.7871V10.0137H1.31348C0.739258 9.74023 0.479492 9.15918 0.479492 8.27051V6.73926C0.479492 5.51562 1.18359 4.78418 2.35254 4.78418H2.94043C2.56445 4.38086 2.33887 3.84766 2.33887 3.24609C2.33887 1.76953 3.52832 0.709961 4.99121 0.709961C6.15332 0.709961 7.19922 1.41406 7.5 2.67188C7.80762 1.41406 8.84668 0.709961 10.0088 0.709961C11.4717 0.709961 12.6611 1.76953 12.6611 3.24609C12.6611 3.84766 12.4355 4.38086 12.0596 4.78418H12.6475C13.8301 4.78418 14.5205 5.51562 14.5205 6.73926V8.27051C14.5205 9.15918 14.2607 9.74023 13.6865 10.0137H13.6729V13.7871C13.6729 15.0791 12.9209 15.8311 11.6084 15.8311H3.3916ZM6.58398 4.78418V3.9502C6.58398 3.12305 5.98926 2.4668 5.27148 2.4668C4.57422 2.4668 4.17773 2.9248 4.17773 3.57422C4.17773 4.28516 4.71777 4.78418 5.6748 4.78418H6.58398ZM8.41602 4.78418H9.33203C10.2822 4.78418 10.8223 4.28516 10.8223 3.57422C10.8223 2.9248 10.4258 2.4668 9.72852 2.4668C9.01758 2.4668 8.41602 3.12305 8.41602 3.9502V4.78418ZM6.55664 8.44141V6.56836H2.94727C2.67383 6.56836 2.53711 6.71191 2.53711 6.98535V8.02441C2.53711 8.29785 2.67383 8.44141 2.94727 8.44141H6.55664ZM8.4502 8.44141H12.0527C12.3262 8.44141 12.4629 8.35254 12.4629 8.07227V6.98535C12.4629 6.71191 12.3262 6.56836 12.0527 6.56836H8.4502V8.44141ZM6.5498 13.9854V10.2256H3.37793V13.2949C3.37793 13.7119 3.63086 13.9854 4.08203 13.9854H6.5498ZM8.4502 13.9854H10.9111C11.3623 13.9854 11.6221 13.7119 11.6221 13.2949V10.2256H8.4502V13.9854Z" fill="#F5F8FF" fill-opacity="0.76"/>
</svg>
